<?xml version="1.0" encoding="utf-8"?>
<!-- Generator: Adobe Illustrator 28.0.0, SVG Export Plug-In . SVG Version: 6.00 Build 0)  -->
<svg version="1.1" id="Layer_1" xmlns="http://www.w3.org/2000/svg" xmlns:xlink="http://www.w3.org/1999/xlink" x="0px" y="0px"
	 viewBox="0 0 250.43 161.36" style="enable-background:new 0 0 250.43 161.36;" xml:space="preserve">
<style type="text/css">
	.st0{fill:#F7941D;}
	.st1{fill:none;stroke:#000000;stroke-miterlimit:10;}
</style>
<g>
	<path d="M73.71,34.03c3.36-0.96,6.71-1.19,10.04-0.68c3.34,0.5,6.41,1.58,9.22,3.24c2.81,1.66,5.26,3.83,7.34,6.52
		c2.09,2.69,3.56,5.74,4.43,9.14c0.96,3.36,1.2,6.71,0.72,10.04c-0.48,3.34-1.54,6.43-3.17,9.29c-1.63,2.86-3.78,5.33-6.44,7.42
		s-5.7,3.59-9.11,4.5c-3.41,0.96-6.77,1.2-10.08,0.72c-3.31-0.48-6.37-1.54-9.18-3.17c-2.81-1.63-5.27-3.79-7.38-6.48
		c-2.11-2.69-3.62-5.76-4.54-9.22c-0.91-3.41-1.12-6.79-0.61-10.15c0.5-3.36,1.58-6.46,3.24-9.29c1.66-2.83,3.8-5.29,6.44-7.38
		C67.28,36.44,70.3,34.94,73.71,34.03z M73.78,34.61c-3.07,0.82-5.58,2.27-7.52,4.36c-1.94,2.09-3.4,4.52-4.36,7.31
		c-0.96,2.78-1.46,5.72-1.51,8.82c-0.05,3.1,0.29,6.01,1.01,8.75c0.72,2.74,1.87,5.42,3.46,8.06c1.58,2.64,3.48,4.91,5.69,6.8
		c2.21,1.9,4.68,3.29,7.42,4.18c2.74,0.89,5.62,0.92,8.64,0.11c3.07-0.77,5.59-2.22,7.56-4.36c1.97-2.14,3.44-4.6,4.43-7.38
		c0.98-2.78,1.51-5.72,1.58-8.82c0.07-3.1-0.25-6.01-0.97-8.75c-0.72-2.78-1.87-5.5-3.46-8.14c-1.58-2.64-3.49-4.92-5.72-6.84
		c-2.23-1.92-4.73-3.3-7.49-4.14C79.77,33.73,76.86,33.74,73.78,34.61z"/>
	<path class="st0" d="M145.93,84.14l-10.15-24.12l-10.01,24.12h-0.65l-21.53-50.9h6.26l18.36,43.7l7.34-17.57l-10.87-26.14h6.05
		l7.85,18.94l4.39-10.15c0.72-1.77,1.61-3.3,2.66-4.57c1.06-1.27,2.23-2.27,3.53-2.99c1.3-0.72,2.66-1.14,4.1-1.26
		c1.44-0.12,2.88,0.11,4.32,0.68c1.39,0.53,2.51,1.26,3.35,2.2c0.84,0.94,1.44,1.99,1.8,3.17c0.36,1.18,0.48,2.44,0.36,3.78
		c-0.12,1.34-0.47,2.66-1.04,3.96l-15.62,37.15H145.93z M149.02,76.94l12.67-29.95c0.48-1.25,0.78-2.51,0.9-3.78
		c0.12-1.27,0.02-2.48-0.29-3.64c-0.31-1.15-0.86-2.18-1.66-3.1c-0.79-0.91-1.86-1.63-3.2-2.16c-1.58-0.58-3.08-0.77-4.5-0.58
		c-1.42,0.19-2.72,0.67-3.92,1.44c-1.2,0.77-2.27,1.74-3.2,2.92c-0.94,1.18-1.72,2.48-2.34,3.92l-4.46,10.94L149.02,76.94z"/>
</g>
<g>
	
		<image style="overflow:visible;opacity:0.75;" width="130" height="324" xlink:href="F6867DE7.png"  transform="matrix(0.24 0 0 0.24 167.64 25.08)">
	</image>
	<g>
		<line x1="176.14" y1="33.09" x2="176.14" y2="80.68"/>
		<line class="st1" x1="176.14" y1="33.09" x2="176.14" y2="80.68"/>
	</g>
</g>
<g>
	<path d="M106.56,93.54v0.34c-0.27,0.02-0.46,0.09-0.58,0.2c-0.11,0.11-0.17,0.26-0.16,0.46s0.06,0.46,0.16,0.77l2.63,7.87
		l-0.44,0.49l2.31-7.19l0.25,0.43l-2.77,8.74c-0.05,0-0.09,0-0.14,0c-0.05,0-0.1,0-0.15,0c-0.05,0-0.09,0-0.14,0
		c-0.05,0-0.1,0-0.14,0l-3.67-10.68c-0.15-0.43-0.33-0.72-0.54-0.86s-0.41-0.22-0.59-0.23v-0.34c0.27,0.01,0.59,0.02,0.97,0.03
		s0.74,0.02,1.09,0.02c0.41,0,0.78-0.01,1.11-0.02C106.09,93.56,106.36,93.55,106.56,93.54z M118.53,93.54v0.34
		c-0.23,0.06-0.47,0.21-0.73,0.45c-0.26,0.24-0.48,0.65-0.66,1.22l-3.13,10.1c-0.05,0-0.09,0-0.14,0c-0.05,0-0.1,0-0.14,0
		c-0.06,0-0.11,0-0.15,0c-0.05,0-0.09,0-0.14,0l-3.6-10.73c-0.14-0.42-0.29-0.69-0.47-0.82c-0.18-0.13-0.34-0.2-0.5-0.21v-0.34
		c0.24,0.01,0.53,0.02,0.88,0.03c0.35,0.01,0.69,0.02,1.02,0.02c0.46,0,0.9-0.01,1.3-0.02c0.4-0.01,0.72-0.02,0.96-0.03v0.34
		c-0.34,0.01-0.61,0.05-0.81,0.11c-0.2,0.06-0.31,0.19-0.34,0.38c-0.03,0.19,0.03,0.5,0.16,0.94l2.5,7.68l-0.29,0.37l2.14-6.75
		c0.23-0.7,0.33-1.25,0.31-1.64c-0.02-0.39-0.15-0.67-0.39-0.83c-0.24-0.16-0.6-0.25-1.06-0.26v-0.34c0.34,0.01,0.68,0.02,1.02,0.03
		c0.34,0.01,0.67,0.02,0.99,0.02c0.28,0,0.52-0.01,0.72-0.02C118.18,93.56,118.36,93.55,118.53,93.54z"/>
	<path d="M124.94,93.3c1.12,0,2.1,0.24,2.94,0.73s1.49,1.19,1.96,2.1s0.7,2.02,0.7,3.32c0,1.27-0.24,2.38-0.71,3.33
		s-1.14,1.69-1.98,2.23s-1.82,0.8-2.92,0.8c-1.12,0-2.1-0.24-2.94-0.73c-0.84-0.49-1.49-1.19-1.96-2.11s-0.7-2.02-0.7-3.31
		c0-1.27,0.24-2.38,0.72-3.33c0.48-0.95,1.14-1.69,1.98-2.23C122.87,93.56,123.84,93.3,124.94,93.3z M124.87,93.6
		c-0.7,0-1.31,0.25-1.84,0.76c-0.52,0.51-0.92,1.21-1.21,2.11c-0.28,0.9-0.43,1.93-0.43,3.11c0,1.2,0.16,2.25,0.48,3.14
		c0.32,0.89,0.75,1.58,1.29,2.06c0.54,0.48,1.15,0.72,1.82,0.72c0.7,0,1.31-0.26,1.83-0.77s0.92-1.22,1.21-2.12
		c0.29-0.9,0.43-1.94,0.43-3.1c0-1.21-0.16-2.26-0.48-3.15c-0.32-0.88-0.75-1.57-1.29-2.05C126.15,93.84,125.54,93.6,124.87,93.6z"
		/>
	<path d="M145.83,93.54v0.34c-0.39,0.01-0.67,0.05-0.87,0.13c-0.19,0.07-0.32,0.21-0.38,0.41c-0.06,0.2-0.09,0.51-0.09,0.93v8.43
		c0,0.41,0.03,0.71,0.09,0.92c0.06,0.2,0.19,0.34,0.38,0.41c0.19,0.07,0.48,0.11,0.87,0.14v0.34c-0.28-0.02-0.63-0.04-1.05-0.04
		c-0.42-0.01-0.84-0.01-1.27-0.01c-0.48,0-0.92,0-1.34,0.01c-0.42,0.01-0.75,0.02-1,0.04v-0.34c0.39-0.02,0.68-0.07,0.88-0.14
		s0.33-0.2,0.4-0.41c0.07-0.2,0.1-0.51,0.1-0.92v-9.3l0.08,0.03l-4.18,11.13h-0.27l-4.39-11.02v8.7c0,0.48,0.03,0.85,0.1,1.11
		s0.21,0.46,0.44,0.57c0.23,0.11,0.57,0.19,1.04,0.22v0.34c-0.22-0.02-0.49-0.04-0.82-0.04c-0.33-0.01-0.65-0.01-0.94-0.01
		c-0.28,0-0.57,0-0.85,0.01c-0.28,0.01-0.52,0.02-0.7,0.04v-0.34c0.37-0.03,0.66-0.1,0.85-0.21c0.19-0.11,0.32-0.29,0.39-0.55
		s0.1-0.62,0.1-1.07v-8.06c0-0.42-0.03-0.73-0.1-0.93c-0.07-0.2-0.2-0.33-0.39-0.41s-0.48-0.12-0.85-0.13v-0.34
		c0.18,0.01,0.41,0.02,0.7,0.03s0.57,0.02,0.85,0.02c0.33,0,0.66-0.01,0.99-0.02c0.33-0.01,0.62-0.02,0.86-0.03l3.76,9.66
		l-0.32,0.22l3.69-9.83c0.15,0,0.3,0,0.46,0c0.16,0,0.32,0,0.48,0c0.43,0,0.86-0.01,1.27-0.02
		C145.2,93.56,145.55,93.55,145.83,93.54z"/>
	<path d="M155.85,93.54c-0.05,0.43-0.08,0.85-0.09,1.25c-0.02,0.4-0.03,0.71-0.03,0.93s0.01,0.42,0.02,0.61
		c0.01,0.19,0.02,0.35,0.03,0.48h-0.39c-0.08-0.73-0.2-1.3-0.37-1.72c-0.16-0.42-0.41-0.72-0.73-0.89
		c-0.32-0.18-0.77-0.26-1.35-0.26h-1.17c-0.36,0-0.64,0.03-0.82,0.09c-0.19,0.06-0.31,0.19-0.38,0.37c-0.07,0.19-0.1,0.48-0.1,0.88
		v8.57c0,0.39,0.03,0.67,0.1,0.87c0.07,0.19,0.2,0.32,0.38,0.38s0.46,0.09,0.82,0.09h1.1c0.65,0,1.16-0.1,1.54-0.31
		c0.38-0.2,0.67-0.54,0.87-1c0.2-0.46,0.35-1.1,0.45-1.9h0.39c-0.03,0.33-0.05,0.76-0.05,1.29c0,0.23,0.01,0.56,0.03,0.99
		c0.02,0.43,0.05,0.87,0.09,1.33c-0.58-0.02-1.23-0.04-1.96-0.04c-0.73-0.01-1.37-0.01-1.94-0.01c-0.26,0-0.59,0-1,0
		c-0.41,0-0.85,0-1.32,0.01c-0.47,0.01-0.95,0.01-1.43,0.02c-0.48,0.01-0.94,0.01-1.39,0.03v-0.34c0.39-0.02,0.67-0.07,0.87-0.14
		s0.32-0.2,0.38-0.41c0.06-0.2,0.09-0.51,0.09-0.92v-8.43c0-0.42-0.03-0.73-0.1-0.93c-0.07-0.2-0.2-0.33-0.39-0.41
		c-0.19-0.07-0.48-0.12-0.85-0.13v-0.34c0.44,0.01,0.9,0.02,1.39,0.03c0.48,0.01,0.96,0.01,1.43,0.02c0.47,0.01,0.91,0.01,1.32,0.01
		c0.41,0,0.74,0,1,0c0.52,0,1.11,0,1.78-0.01C154.73,93.57,155.33,93.56,155.85,93.54z M153.03,99.35v0.34h-3.08v-0.34H153.03z
		 M153.52,97.11c-0.05,0.65-0.07,1.14-0.06,1.48c0.01,0.34,0.01,0.65,0.01,0.94s0.01,0.59,0.02,0.93c0.01,0.34,0.04,0.83,0.08,1.48
		h-0.39c-0.06-0.37-0.13-0.73-0.22-1.08s-0.25-0.63-0.48-0.84c-0.23-0.21-0.59-0.32-1.08-0.32v-0.34c0.36,0,0.65-0.07,0.86-0.22
		c0.21-0.15,0.37-0.34,0.48-0.58s0.2-0.48,0.25-0.74c0.05-0.25,0.1-0.49,0.14-0.71H153.52z"/>
	<path d="M168.51,93.54v0.34c-0.39,0.02-0.67,0.09-0.87,0.2c-0.19,0.11-0.32,0.3-0.38,0.55s-0.09,0.61-0.09,1.08v9.93
		c-0.09,0-0.18,0-0.27,0c-0.09,0-0.19,0-0.29,0l-7.21-10.47v8.16c0,0.48,0.03,0.85,0.1,1.11s0.21,0.46,0.44,0.57
		c0.23,0.11,0.57,0.19,1.04,0.22v0.34c-0.22-0.02-0.49-0.04-0.82-0.04c-0.33-0.01-0.65-0.01-0.94-0.01c-0.28,0-0.57,0-0.85,0.01
		c-0.28,0.01-0.52,0.02-0.7,0.04v-0.34c0.37-0.03,0.66-0.1,0.85-0.21c0.19-0.11,0.32-0.29,0.39-0.55s0.1-0.62,0.1-1.07v-8.06
		c0-0.42-0.03-0.73-0.1-0.93c-0.07-0.2-0.2-0.33-0.39-0.41s-0.48-0.12-0.85-0.13v-0.34c0.18,0.01,0.41,0.02,0.7,0.03
		s0.57,0.02,0.85,0.02c0.25,0,0.49-0.01,0.73-0.02s0.45-0.02,0.63-0.03l6.21,8.87v-6.63c0-0.49-0.04-0.86-0.11-1.12
		c-0.07-0.26-0.22-0.45-0.45-0.57s-0.57-0.19-1.02-0.21v-0.34c0.2,0.01,0.48,0.02,0.82,0.03c0.34,0.01,0.66,0.02,0.95,0.02
		c0.28,0,0.57-0.01,0.85-0.02C168.1,93.56,168.33,93.55,168.51,93.54z"/>
	<path d="M179.68,93.3c1.12,0,2.1,0.24,2.94,0.73s1.49,1.19,1.96,2.1s0.7,2.02,0.7,3.32c0,1.27-0.24,2.38-0.71,3.33
		s-1.14,1.69-1.98,2.23s-1.82,0.8-2.92,0.8c-1.12,0-2.1-0.24-2.94-0.73c-0.84-0.49-1.49-1.19-1.96-2.11s-0.7-2.02-0.7-3.31
		c0-1.27,0.24-2.38,0.72-3.33c0.48-0.95,1.14-1.69,1.98-2.23C177.61,93.56,178.58,93.3,179.68,93.3z M179.61,93.6
		c-0.7,0-1.31,0.25-1.84,0.76c-0.52,0.51-0.92,1.21-1.21,2.11c-0.28,0.9-0.43,1.93-0.43,3.11c0,1.2,0.16,2.25,0.48,3.14
		c0.32,0.89,0.75,1.58,1.29,2.06c0.54,0.48,1.15,0.72,1.82,0.72c0.7,0,1.31-0.26,1.83-0.77s0.92-1.22,1.21-2.12
		c0.29-0.9,0.43-1.94,0.43-3.1c0-1.21-0.16-2.26-0.48-3.15c-0.32-0.88-0.75-1.57-1.29-2.05C180.89,93.84,180.28,93.6,179.61,93.6z"
		/>
	<path d="M197.63,93.54v0.34c-0.39,0.02-0.67,0.09-0.87,0.2c-0.19,0.11-0.32,0.3-0.38,0.55s-0.09,0.61-0.09,1.08v9.93
		c-0.09,0-0.18,0-0.27,0c-0.09,0-0.19,0-0.29,0l-7.21-10.47v8.16c0,0.48,0.03,0.85,0.1,1.11s0.21,0.46,0.44,0.57
		c0.23,0.11,0.57,0.19,1.04,0.22v0.34c-0.22-0.02-0.49-0.04-0.82-0.04c-0.33-0.01-0.65-0.01-0.94-0.01c-0.28,0-0.57,0-0.85,0.01
		c-0.28,0.01-0.52,0.02-0.7,0.04v-0.34c0.37-0.03,0.66-0.1,0.85-0.21c0.19-0.11,0.32-0.29,0.39-0.55s0.1-0.62,0.1-1.07v-8.06
		c0-0.42-0.03-0.73-0.1-0.93c-0.07-0.2-0.2-0.33-0.39-0.41s-0.48-0.12-0.85-0.13v-0.34c0.18,0.01,0.41,0.02,0.7,0.03
		s0.57,0.02,0.85,0.02c0.25,0,0.49-0.01,0.73-0.02s0.45-0.02,0.63-0.03l6.21,8.87v-6.63c0-0.49-0.04-0.86-0.11-1.12
		c-0.07-0.26-0.22-0.45-0.45-0.57s-0.57-0.19-1.02-0.21v-0.34c0.2,0.01,0.48,0.02,0.82,0.03c0.34,0.01,0.66,0.02,0.95,0.02
		c0.28,0,0.57-0.01,0.85-0.02C197.22,93.56,197.45,93.55,197.63,93.54z"/>
	<path d="M203.53,93.54v0.34c-0.39,0.01-0.68,0.05-0.88,0.13s-0.33,0.21-0.4,0.41c-0.07,0.2-0.1,0.51-0.1,0.93v8.5
		c0,0.39,0.03,0.67,0.09,0.87c0.06,0.19,0.19,0.32,0.37,0.38s0.46,0.09,0.81,0.09h1.1c0.49,0,0.9-0.07,1.23-0.2
		c0.33-0.14,0.61-0.34,0.84-0.61c0.23-0.27,0.4-0.62,0.53-1.05c0.12-0.43,0.22-0.93,0.29-1.51h0.39c-0.03,0.36-0.05,0.84-0.05,1.43
		c0,0.23,0.01,0.56,0.03,0.99c0.02,0.44,0.05,0.89,0.09,1.35c-0.58-0.02-1.23-0.04-1.96-0.04c-0.73-0.01-1.37-0.01-1.94-0.01
		c-0.26,0-0.59,0-1,0c-0.41,0-0.85,0-1.32,0.01c-0.47,0.01-0.95,0.01-1.43,0.02c-0.48,0.01-0.94,0.01-1.39,0.03v-0.34
		c0.39-0.02,0.67-0.07,0.87-0.14s0.32-0.2,0.38-0.41c0.06-0.2,0.09-0.51,0.09-0.92v-8.43c0-0.42-0.03-0.73-0.09-0.93
		c-0.06-0.2-0.19-0.33-0.39-0.41s-0.48-0.12-0.86-0.13v-0.34c0.26,0.01,0.6,0.02,1.01,0.03s0.86,0.02,1.33,0.02
		c0.43,0,0.86-0.01,1.28-0.02S203.26,93.55,203.53,93.54z"/>
	<path d="M218.49,93.54v0.34c-0.23,0.06-0.46,0.21-0.69,0.47c-0.23,0.25-0.49,0.65-0.77,1.2l-3.35,6.65h-0.46l-3.98-7.34
		c-0.23-0.41-0.42-0.67-0.57-0.78c-0.15-0.11-0.29-0.17-0.42-0.17v-0.36c0.25,0.01,0.51,0.02,0.78,0.03s0.57,0.02,0.88,0.02
		c0.41,0,0.85,0,1.33-0.01c0.48-0.01,0.92-0.02,1.33-0.04v0.36c-0.28,0-0.54,0.03-0.76,0.08c-0.22,0.06-0.37,0.17-0.44,0.33
		c-0.07,0.16-0.03,0.4,0.13,0.71l2.8,5.39l-0.27,0.29l2.09-4.17c0.35-0.69,0.53-1.23,0.54-1.61s-0.12-0.65-0.37-0.8
		c-0.25-0.15-0.62-0.23-1.1-0.25v-0.34c0.35,0.01,0.7,0.02,1.04,0.03c0.34,0.01,0.66,0.02,0.97,0.02c0.28,0,0.53-0.01,0.73-0.02
		S218.32,93.55,218.49,93.54z M214.58,100.1v3.67c0,0.41,0.03,0.71,0.1,0.92c0.07,0.2,0.2,0.34,0.39,0.41
		c0.19,0.07,0.48,0.11,0.85,0.14v0.34c-0.27-0.02-0.62-0.04-1.04-0.04c-0.42-0.01-0.84-0.01-1.27-0.01c-0.46,0-0.91,0-1.33,0.01
		c-0.42,0.01-0.75,0.02-1,0.04v-0.34c0.39-0.02,0.67-0.07,0.87-0.14c0.19-0.07,0.32-0.2,0.38-0.41c0.06-0.2,0.09-0.51,0.09-0.92
		v-3.49l1.1,1.05L214.58,100.1z"/>
</g>
</svg>
