<?xml version="1.0" encoding="UTF-8"?><svg id="Layer_1" xmlns="http://www.w3.org/2000/svg" viewBox="0 0 163.81 80.73"><defs><style>.cls-1{fill:none;stroke:#000;stroke-miterlimit:10;}.cls-2,.cls-3{stroke-width:0px;}.cls-3{fill:#f7941d;}</style></defs><path class="cls-2" d="m19.03,8.95c3.36-.96,6.71-1.19,10.04-.68,3.34.5,6.41,1.58,9.22,3.24s5.26,3.83,7.34,6.52c2.09,2.69,3.56,5.74,4.43,9.14.96,3.36,1.2,6.71.72,10.04-.48,3.34-1.54,6.43-3.17,9.29s-3.78,5.33-6.44,7.42-5.7,3.59-9.11,4.5c-3.41.96-6.77,1.2-10.08.72-3.31-.48-6.37-1.54-9.18-3.17s-5.27-3.79-7.38-6.48-3.62-5.76-4.54-9.22C-.03,36.86-.24,33.48.27,30.12c.5-3.36,1.58-6.46,3.24-9.29s3.8-5.29,6.44-7.38c2.65-2.09,5.67-3.59,9.08-4.5Zm.07.58c-3.07.82-5.58,2.27-7.52,4.36-1.94,2.09-3.4,4.52-4.36,7.31-.96,2.78-1.46,5.72-1.51,8.82s.29,6.01,1.01,8.75c.72,2.74,1.87,5.42,3.46,8.06,1.58,2.64,3.48,4.91,5.69,6.8,2.21,1.9,4.68,3.29,7.42,4.18s5.62.92,8.64.11c3.07-.77,5.59-2.22,7.56-4.36s3.44-4.6,4.43-7.38c.98-2.78,1.51-5.72,1.58-8.82s-.25-6.01-.97-8.75c-.72-2.78-1.87-5.5-3.46-8.14-1.58-2.64-3.49-4.92-5.72-6.84-2.23-1.92-4.73-3.3-7.49-4.14-2.77-.84-5.68-.83-8.76.04Z"/><path class="cls-3" d="m91.25,59.06l-10.15-24.12-10.01,24.12h-.65L48.91,8.16h6.26l18.36,43.7,7.34-17.57-10.87-26.14h6.05l7.85,18.94,4.39-10.15c.72-1.77,1.61-3.3,2.66-4.57,1.06-1.27,2.23-2.27,3.53-2.99s2.66-1.14,4.1-1.26,2.88.11,4.32.68c1.39.53,2.51,1.26,3.35,2.2.84.94,1.44,1.99,1.8,3.17s.48,2.44.36,3.78-.47,2.66-1.04,3.96l-15.62,37.15s-.5,0-.5,0Zm3.09-7.2l12.67-29.95c.48-1.25.78-2.51.9-3.78s.02-2.48-.29-3.64c-.31-1.15-.86-2.18-1.66-3.1-.79-.91-1.86-1.63-3.2-2.16-1.58-.58-3.08-.77-4.5-.58s-2.72.67-3.92,1.44-2.27,1.74-3.2,2.92c-.94,1.18-1.72,2.48-2.34,3.92l-4.46,10.94,10,23.99Z"/><line class="cls-1" x1="121.46" y1="8.01" x2="121.46" y2="55.6"/><path class="cls-2" d="m51.88,68.46v.34c-.27.02-.46.09-.58.2-.11.11-.17.26-.16.46s.06.46.16.77l2.63,7.87-.44.49,2.31-7.19.25.43-2.77,8.74h-.57l-3.67-10.68c-.15-.43-.33-.72-.54-.86s-.41-.22-.59-.23v-.34c.27.01.59.02.97.03s.74.02,1.09.02c.41,0,.78-.01,1.11-.02.33,0,.6-.02.8-.03Zm11.97,0v.34c-.23.06-.47.21-.73.45s-.48.65-.66,1.22l-3.13,10.1h-.57l-3.6-10.73c-.14-.42-.29-.69-.47-.82s-.34-.2-.5-.21v-.34c.24.01.53.02.88.03s.69.02,1.02.02c.46,0,.9-.01,1.3-.02.4-.01.72-.02.96-.03v.34c-.34.01-.61.05-.81.11s-.31.19-.34.38c-.03.19.03.5.16.94l2.5,7.68-.29.37,2.14-6.75c.23-.7.33-1.25.31-1.64-.02-.39-.15-.67-.39-.83s-.6-.25-1.06-.26v-.34c.34.01.68.02,1.02.03s.67.02.99.02c.28,0,.52-.01.72-.02.2-.02.38-.03.55-.04Z"/><path class="cls-2" d="m70.26,68.22c1.12,0,2.1.24,2.94.73.84.49,1.49,1.19,1.96,2.1s.7,2.02.7,3.32-.24,2.38-.71,3.33-1.14,1.69-1.98,2.23-1.82.8-2.92.8-2.1-.24-2.94-.73c-.84-.49-1.49-1.19-1.96-2.11s-.7-2.02-.7-3.31.24-2.38.72-3.33c.48-.95,1.14-1.69,1.98-2.23.84-.54,1.81-.8,2.91-.8Zm-.07.3c-.7,0-1.31.25-1.84.76-.52.51-.92,1.21-1.21,2.11-.28.9-.43,1.93-.43,3.11s.16,2.25.48,3.14.75,1.58,1.29,2.06c.54.48,1.15.72,1.82.72s1.31-.26,1.83-.77.92-1.22,1.21-2.12c.29-.9.43-1.94.43-3.1s-.16-2.26-.48-3.15c-.32-.88-.75-1.57-1.29-2.05-.53-.47-1.14-.71-1.81-.71Z"/><path class="cls-2" d="m91.15,68.46v.34c-.39.01-.67.05-.87.13-.19.07-.32.21-.38.41-.06.2-.09.51-.09.93v8.43c0,.41.03.71.09.92.06.2.19.34.38.41.19.07.48.11.87.14v.34c-.28-.02-.63-.04-1.05-.04-.42-.01-.84-.01-1.27-.01-.48,0-.92,0-1.34.01s-.75.02-1,.04v-.34c.39-.02.68-.07.88-.14s.33-.2.4-.41c.07-.2.1-.51.1-.92v-9.3l.08.03-4.18,11.13h-.27l-4.39-11.02v8.7c0,.48.03.85.1,1.11s.21.46.44.57.57.19,1.04.22v.34c-.22-.02-.49-.04-.82-.04-.33-.01-.65-.01-.94-.01s-.57,0-.85.01-.52.02-.7.04v-.34c.37-.03.66-.1.85-.21s.32-.29.39-.55.1-.62.1-1.07v-8.06c0-.42-.03-.73-.1-.93s-.2-.33-.39-.41-.48-.12-.85-.13v-.34c.18.01.41.02.7.03s.57.02.85.02c.33,0,.66-.01.99-.02.33-.01.62-.02.86-.03l3.76,9.66-.32.22,3.69-9.83h.94c.43,0,.86-.01,1.27-.02.4.01.75,0,1.03,0Z"/><path class="cls-2" d="m101.17,68.46c-.05.43-.08.85-.09,1.25-.02.4-.03.71-.03.93s0,.42.02.61c0,.19.02.35.03.48h-.39c-.08-.73-.2-1.3-.37-1.72-.16-.42-.41-.72-.73-.89-.32-.18-.77-.26-1.35-.26h-1.17c-.36,0-.64.03-.82.09-.19.06-.31.19-.38.37-.07.19-.1.48-.1.88v8.57c0,.39.03.67.1.87.07.19.2.32.38.38s.46.09.82.09h1.1c.65,0,1.16-.1,1.54-.31.38-.2.67-.54.87-1s.35-1.1.45-1.9h.39c-.03.33-.05.76-.05,1.29,0,.23,0,.56.03.99s.05.87.09,1.33c-.58-.02-1.23-.04-1.96-.04-.73-.01-1.37-.01-1.94-.01h-1c-.41,0-.85,0-1.32.01s-.95.01-1.43.02c-.48.01-.94.01-1.39.03v-.34c.39-.02.67-.07.87-.14s.32-.2.38-.41c.06-.2.09-.51.09-.92v-8.43c0-.42-.03-.73-.1-.93s-.2-.33-.39-.41c-.19-.07-.48-.12-.85-.13v-.34c.44.01.9.02,1.39.03.48.01.96.01,1.43.02.47.01.91.01,1.32.01h1c.52,0,1.11,0,1.78-.01.66-.03,1.26-.04,1.78-.06Zm-2.82,5.81v.34h-3.08v-.34h3.08Zm.49-2.24c-.05.65-.07,1.14-.06,1.48,0,.34,0,.65,0,.94s0,.59.02.93c0,.34.04.83.08,1.48h-.39c-.06-.37-.13-.73-.22-1.08s-.25-.63-.48-.84-.59-.32-1.08-.32v-.34c.36,0,.65-.07.86-.22s.37-.34.48-.58.2-.48.25-.74c.05-.25.1-.49.14-.71h.39Z"/><path class="cls-2" d="m113.83,68.46v.34c-.39.02-.67.09-.87.2-.19.11-.32.3-.38.55s-.09.61-.09,1.08v9.93h-.56l-7.21-10.47v8.16c0,.48.03.85.1,1.11s.21.46.44.57.57.19,1.04.22v.34c-.22-.02-.49-.04-.82-.04-.33-.01-.65-.01-.94-.01s-.57,0-.85.01-.52.02-.7.04v-.34c.37-.03.66-.1.85-.21s.32-.29.39-.55.1-.62.1-1.07v-8.06c0-.42-.03-.73-.1-.93s-.2-.33-.39-.41-.48-.12-.85-.13v-.34c.18.01.41.02.7.03s.57.02.85.02c.25,0,.49-.01.73-.02s.45-.02.63-.03l6.21,8.87v-6.63c0-.49-.04-.86-.11-1.12s-.22-.45-.45-.57-.57-.19-1.02-.21v-.34c.2.01.48.02.82.03.34.01.66.02.95.02s.57-.01.85-.02c.27,0,.5-.01.68-.02Z"/><path class="cls-2" d="m125,68.22c1.12,0,2.1.24,2.94.73s1.49,1.19,1.96,2.1.7,2.02.7,3.32-.24,2.38-.71,3.33-1.14,1.69-1.98,2.23-1.82.8-2.92.8-2.1-.24-2.94-.73c-.84-.49-1.49-1.19-1.96-2.11s-.7-2.02-.7-3.31.24-2.38.72-3.33c.48-.95,1.14-1.69,1.98-2.23.84-.54,1.81-.8,2.91-.8Zm-.07.3c-.7,0-1.31.25-1.84.76-.52.51-.92,1.21-1.21,2.11-.28.9-.43,1.93-.43,3.11s.16,2.25.48,3.14c.32.89.75,1.58,1.29,2.06.54.48,1.15.72,1.82.72s1.31-.26,1.83-.77.92-1.22,1.21-2.12c.29-.9.43-1.94.43-3.1s-.16-2.26-.48-3.15c-.32-.88-.75-1.57-1.29-2.05-.53-.47-1.14-.71-1.81-.71Z"/><path class="cls-2" d="m142.95,68.46v.34c-.39.02-.67.09-.87.2-.19.11-.32.3-.38.55s-.09.61-.09,1.08v9.93h-.56l-7.21-10.47v8.16c0,.48.03.85.1,1.11s.21.46.44.57.57.19,1.04.22v.34c-.22-.02-.49-.04-.82-.04-.33-.01-.65-.01-.94-.01s-.57,0-.85.01-.52.02-.7.04v-.34c.37-.03.66-.1.85-.21s.32-.29.39-.55.1-.62.1-1.07v-8.06c0-.42-.03-.73-.1-.93s-.2-.33-.39-.41-.48-.12-.85-.13v-.34c.18.01.41.02.7.03s.57.02.85.02c.25,0,.49-.01.73-.02s.45-.02.63-.03l6.21,8.87v-6.63c0-.49-.04-.86-.11-1.12s-.22-.45-.45-.57-.57-.19-1.02-.21v-.34c.2.01.48.02.82.03.34.01.66.02.95.02s.57-.01.85-.02c.27,0,.5-.01.68-.02Z"/><path class="cls-2" d="m148.85,68.46v.34c-.39.01-.68.05-.88.13s-.33.21-.4.41c-.07.2-.1.51-.1.93v8.5c0,.39.03.67.09.87.06.19.19.32.37.38s.46.09.81.09h1.1c.49,0,.9-.07,1.23-.2.33-.14.61-.34.84-.61.23-.27.4-.62.53-1.05.12-.43.22-.93.29-1.51h.39c-.03.36-.05.84-.05,1.43,0,.23,0,.56.03.99.02.44.05.89.09,1.35-.58-.02-1.23-.04-1.96-.04-.73-.01-1.37-.01-1.94-.01h-1c-.41,0-.85,0-1.32.01s-.95.01-1.43.02c-.48.01-.94.01-1.39.03v-.34c.39-.02.67-.07.87-.14s.32-.2.38-.41c.06-.2.09-.51.09-.92v-8.43c0-.42-.03-.73-.09-.93s-.19-.33-.39-.41-.48-.12-.86-.13v-.34c.26.01.6.02,1.01.03s.86.02,1.33.02c.43,0,.86-.01,1.28-.02s.81-.03,1.08-.04Z"/><path class="cls-2" d="m163.81,68.46v.34c-.23.06-.46.21-.69.47-.23.25-.49.65-.77,1.2l-3.35,6.65h-.46l-3.98-7.34c-.23-.41-.42-.67-.57-.78-.15-.11-.29-.17-.42-.17v-.36c.25.01.51.02.78.03s.57.02.88.02c.41,0,.85,0,1.33-.01s.92-.02,1.33-.04v.36c-.28,0-.54.03-.76.08-.22.06-.37.17-.44.33s-.03.4.13.71l2.8,5.39-.27.29,2.09-4.17c.35-.69.53-1.23.54-1.61s-.12-.65-.37-.8-.62-.23-1.1-.25v-.34c.35.01.7.02,1.04.03s.66.02.97.02c.28,0,.53-.01.73-.02s.39-.02.56-.03Zm-3.91,6.56v3.67c0,.41.03.71.1.92.07.2.2.34.39.41.19.07.48.11.85.14v.34c-.27-.02-.62-.04-1.04-.04-.42-.01-.84-.01-1.27-.01-.46,0-.91,0-1.33.01s-.75.02-1,.04v-.34c.39-.02.67-.07.87-.14.19-.07.32-.2.38-.41.06-.2.09-.51.09-.92v-3.49l1.1,1.05.86-1.23Z"/></svg>